<svg width="22" height="22" viewBox="0 0 22 22" fill="black" xmlns="http://www.w3.org/2000/svg">
<path fill-rule="evenodd" clip-rule="evenodd" d="M0.504894 19.0475C-0.118623 19.6741 -0.105757 20.6906 0.533417 21.3012C1.15442 21.8945 2.13585 21.8821 2.74164 21.2733L10.8745 13.1003L19.0475 21.2332C19.6741 21.8568 20.6906 21.8439 21.3012 21.2047C21.8945 20.5837 21.882 19.6023 21.2733 18.9965L13.1003 10.8636L21.2332 2.69064C21.8568 2.06405 21.8439 1.04752 21.2047 0.436909C20.5837 -0.156335 19.6023 -0.143914 18.9965 0.464855L10.8636 8.6378L2.69064 0.504894C2.06405 -0.118624 1.04752 -0.105757 0.436908 0.533418C-0.156335 1.15442 -0.143914 2.13585 0.464855 2.74164L8.63781 10.8745L0.504894 19.0475Z" />
</svg>
