<svg width="24" height="24" viewBox="0 0 24 24" fill="black" xmlns="http://www.w3.org/2000/svg">
<path fill-rule="evenodd" clip-rule="evenodd" d="M20.3846 0.611381C21.1587 -0.176596 22.4249 -0.187783 23.2129 0.586296C24.0008 1.36038 24.0121 2.62668 23.238 3.41465L14.8282 11.9749L23.3884 20.3846C24.1764 21.1588 24.1876 22.425 23.4135 23.213C22.6394 24.0009 21.3732 24.0122 20.5852 23.238L12.025 14.8283L3.61538 23.3885C2.84126 24.1764 1.57496 24.1876 0.787022 23.4135C-0.000911138 22.6394 -0.0121848 21.3732 0.761938 20.5852L9.17155 12.0251L0.611389 3.61542C-0.176544 2.84134 -0.187817 1.57508 0.586305 0.787101C1.36043 -0.000875558 2.62669 -0.0120629 3.41462 0.762017L11.9748 9.17167L20.3846 0.611381Z" />
</svg>
